<svg width="61" height="61" viewBox="0 0 61 61" fill="none" xmlns="http://www.w3.org/2000/svg">
<circle cx="30.8217" cy="30.8217" r="28.5073" fill="white" stroke="white" stroke-width="2.79092"/>
<path d="M40.4333 35.9442C40.4333 37.2558 40.0967 38.4918 39.4235 39.6521C38.7752 40.7872 37.8029 41.7331 36.5063 42.4898C35.2348 43.2213 33.7263 43.6501 31.981 43.7762V46.841H29.5875V43.7384C27.0942 43.5114 25.0871 42.7547 23.5662 41.4682C22.0453 40.1566 21.2599 38.3909 21.2101 36.1712H26.82C26.9696 37.9873 27.8921 39.0846 29.5875 39.4629V32.2362C27.7923 31.7822 26.3462 31.3282 25.2492 30.8741C24.1522 30.4201 23.2047 29.6886 22.4069 28.6796C21.609 27.6707 21.2101 26.296 21.2101 24.5555C21.2101 22.361 21.983 20.5701 23.5288 19.1828C25.0996 17.7954 27.1192 17.0009 29.5875 16.7991V13.7344H31.981V16.7991C34.3746 17.0009 36.282 17.7324 37.7031 18.9936C39.1492 20.2548 39.9595 21.9953 40.1341 24.215H34.4868C34.412 23.4835 34.1502 22.8529 33.7014 22.3232C33.2776 21.7682 32.7041 21.3773 31.981 21.1502V28.3013C33.851 28.7805 35.322 29.2472 36.3941 29.7012C37.4912 30.13 38.4386 30.8489 39.2365 31.8579C40.0343 32.8416 40.4333 34.2037 40.4333 35.9442ZM26.6704 24.2906C26.6704 25.123 26.9197 25.8041 27.4183 26.3338C27.917 26.8383 28.6401 27.2545 29.5875 27.5824V21.0367C28.6899 21.1629 27.9793 21.5034 27.4557 22.0583C26.9322 22.6132 26.6704 23.3574 26.6704 24.2906ZM31.981 39.5386C32.9285 39.362 33.664 38.971 34.1876 38.3657C34.7361 37.7603 35.0104 37.0288 35.0104 36.1712C35.0104 35.3388 34.7486 34.6703 34.225 34.1659C33.7014 33.6614 32.9534 33.2452 31.981 32.9173V39.5386Z" fill="#F17E2D"/>
</svg>
