<svg width="61" height="61" viewBox="0 0 61 61" fill="none" xmlns="http://www.w3.org/2000/svg">
<path d="M30.8217 0.918945L35.602 5.24926L41.6238 2.93821L44.517 8.70296L50.967 8.72329L51.5824 15.1439L57.5895 17.4929L55.8439 23.7022L60.5968 28.0626L56.7261 33.2221L59.5829 39.0049L54.1097 42.4177L54.6845 48.8421L48.3481 50.0473L46.5634 56.2455L40.2195 55.0803L36.3163 60.2152L30.8217 56.837L25.3271 60.2152L21.4238 55.0803L15.0799 56.2455L13.2952 50.0473L6.95878 48.8421L7.53366 42.4177L2.06046 39.0049L4.91728 33.2221L1.0465 28.0626L5.79942 23.7022L4.05385 17.4929L10.061 15.1439L10.6763 8.72329L17.1263 8.70296L20.0196 2.93821L26.0414 5.24926L30.8217 0.918945Z" fill="white"/>
<circle cx="30.8216" cy="30.8215" r="14.9514" fill="#F17E2D"/>
<path d="M24.9712 30.4962L28.8715 34.3966L36.3472 26.9209" stroke="white" stroke-width="3.35864" stroke-linecap="round" stroke-linejoin="round"/>
</svg>
