<svg width="70" height="61" viewBox="0 0 70 61" fill="none" xmlns="http://www.w3.org/2000/svg">
<path d="M14.9803 4.55307C14.9803 2.3691 16.7508 0.598633 18.9348 0.598633H50.7091C52.8931 0.598633 54.6635 2.3691 54.6635 4.55308V18.6364C54.6635 29.5946 45.7801 38.478 34.8219 38.478C23.8637 38.478 14.9803 29.5946 14.9803 18.6364V4.55307Z" fill="white"/>
<path d="M17.6858 51.3365C17.6858 49.8805 18.8661 48.7002 20.3221 48.7002H49.3213C50.7773 48.7002 51.9576 49.8805 51.9576 51.3365C51.9576 52.7925 50.7773 53.9728 49.3213 53.9728H20.3221C18.8661 53.9728 17.6858 52.7925 17.6858 51.3365Z" fill="white"/>
<path d="M40.8337 29.459L40.8337 50.5031L28.2073 50.5031L28.2073 29.459L40.8337 29.459Z" fill="white"/>
<path d="M10.7711 56.2621C10.7711 54.0781 12.5416 52.3076 14.7256 52.3076H54.3162C56.5002 52.3076 58.2707 54.0781 58.2707 56.2621V56.7708C58.2707 58.9548 56.5002 60.7253 54.3162 60.7253H14.7256C12.5416 60.7253 10.7711 58.9548 10.7711 56.7708V56.2621Z" fill="white"/>
<path d="M49.2519 10.8194H63.6822C65.6746 10.8194 67.2897 12.4346 67.2897 14.427C67.2897 22.3966 60.8291 28.8572 52.8595 28.8572H49.2519V10.8194Z" stroke="white" stroke-width="3.60756"/>
<path d="M2.35359 14.427C2.35359 12.4346 3.96875 10.8194 5.96115 10.8194H20.3914V28.8572H16.7838C8.81422 28.8572 2.35359 22.3966 2.35359 14.427Z" stroke="white" stroke-width="3.60756"/>
<path d="M34.8217 9.1543L37.1892 16.4408H44.8507L38.6524 20.9442L41.02 28.2307L34.8217 23.7274L28.6234 28.2307L30.9909 20.9442L24.7926 16.4408H32.4541L34.8217 9.1543Z" fill="#F17E2D"/>
</svg>
