<svg width="271" height="105" viewBox="0 0 271 105" fill="none" xmlns="http://www.w3.org/2000/svg">
<path d="M7.6965 81.1617C16.4917 73.8324 23.5005 67.7398 28.7226 62.8841C33.9448 57.9368 38.2966 52.8062 41.7781 47.4924C45.2595 42.1787 47.0002 36.9565 47.0002 31.8259C47.0002 27.1535 45.9008 23.4888 43.702 20.8319C41.5032 18.175 38.1134 16.8465 33.5325 16.8465C28.9517 16.8465 25.4244 18.404 22.9508 21.519C20.4771 24.5424 19.1945 28.7109 19.1028 34.0247H0.412941C0.779409 23.0307 4.03182 14.6935 10.1702 9.01326C16.4001 3.333 24.2792 0.492864 33.8074 0.492864C44.2517 0.492864 52.2682 3.28719 57.8569 8.87584C63.4455 14.3729 66.2398 21.6564 66.2398 30.7265C66.2398 37.8727 64.3159 44.6981 60.468 51.2029C56.62 57.7078 52.2224 63.388 47.2751 68.2437C42.3278 73.0078 35.8688 78.7797 27.8981 85.5594H68.4387V101.501H0.550367V87.2085L7.6965 81.1617ZM147.901 19.3202H103.375V42.82C105.299 40.4379 108.047 38.514 111.62 37.0481C115.193 35.4906 118.996 34.7119 123.027 34.7119C130.356 34.7119 136.357 36.3152 141.029 39.5218C145.702 42.7284 149.092 46.8511 151.199 51.8901C153.306 56.8374 154.36 62.1512 154.36 67.8314C154.36 78.3674 151.336 86.842 145.29 93.2552C139.335 99.6684 130.814 102.875 119.728 102.875C109.284 102.875 100.947 100.264 94.717 95.0417C88.4871 89.8196 84.9598 82.9941 84.1352 74.5653H102.825C103.65 78.23 105.482 81.1617 108.322 83.3606C111.254 85.5594 114.964 86.6588 119.454 86.6588C124.859 86.6588 128.936 84.9639 131.685 81.574C134.433 78.1842 135.807 73.6949 135.807 68.1063C135.807 62.426 134.387 58.12 131.547 55.1883C128.799 52.1649 124.722 50.6532 119.316 50.6532C115.468 50.6532 112.262 51.6152 109.696 53.5392C107.131 55.4631 105.299 58.0284 104.199 61.235H85.7843V2.41683H147.901V19.3202ZM166.804 27.2909C166.804 20.328 168.82 14.8768 172.851 10.9372C176.974 6.99769 182.242 5.02792 188.655 5.02792C195.068 5.02792 200.29 6.99769 204.322 10.9372C208.444 14.8768 210.506 20.328 210.506 27.2909C210.506 34.3454 208.444 39.8424 204.322 43.782C200.29 47.7215 195.068 49.6913 188.655 49.6913C182.242 49.6913 176.974 47.7215 172.851 43.782C168.82 39.8424 166.804 34.3454 166.804 27.2909ZM255.032 6.67702L201.023 102.875H182.333L236.204 6.67702H255.032ZM188.518 16.5717C183.479 16.5717 180.959 20.1447 180.959 27.2909C180.959 34.5286 183.479 38.1475 188.518 38.1475C190.991 38.1475 192.915 37.2771 194.289 35.5364C195.664 33.7041 196.351 30.9556 196.351 27.2909C196.351 20.1447 193.74 16.5717 188.518 16.5717ZM227.134 82.1237C227.134 75.0692 229.15 69.618 233.181 65.7701C237.304 61.8305 242.572 59.8608 248.985 59.8608C255.398 59.8608 260.574 61.8305 264.514 65.7701C268.545 69.618 270.561 75.0692 270.561 82.1237C270.561 89.1782 268.545 94.6753 264.514 98.6148C260.574 102.554 255.398 104.524 248.985 104.524C242.48 104.524 237.212 102.554 233.181 98.6148C229.15 94.6753 227.134 89.1782 227.134 82.1237ZM248.847 71.4045C243.625 71.4045 241.014 74.9776 241.014 82.1237C241.014 89.3615 243.625 92.9804 248.847 92.9804C253.978 92.9804 256.543 89.3615 256.543 82.1237C256.543 74.9776 253.978 71.4045 248.847 71.4045Z" fill="#F17E2D"/>
</svg>
